<svg width="2500" height="1992" viewBox="0 0 2500 1992" fill="none" xmlns="http://www.w3.org/2000/svg">
<path fill-rule="evenodd" clip-rule="evenodd" d="M519.258 0.238281C376.611 0.238281 271.06 125.092 275.786 260.492C280.322 390.575 274.429 559.052 232.017 696.444C189.453 834.223 117.52 921.532 0 932.738V1059.26C117.52 1070.49 189.453 1157.76 232.012 1295.56C274.429 1432.95 280.317 1601.42 275.781 1731.51C271.055 1866.89 376.606 1991.76 519.277 1991.76H1980.93C2123.58 1991.76 2229.11 1866.91 2224.38 1731.51C2219.85 1601.42 2225.74 1432.95 2268.15 1295.56C2310.72 1157.76 2382.48 1070.46 2500 1059.26V932.738C2382.48 921.508 2310.72 834.242 2268.15 696.444C2225.74 559.071 2219.85 390.575 2224.38 260.492C2229.11 125.111 2123.58 0.238281 1980.93 0.238281H519.238H519.258ZM1694.92 1226.15C1694.92 1412.59 1555.85 1525.66 1325.06 1525.66H932.202C920.964 1525.66 910.186 1521.2 902.24 1513.25C894.293 1505.31 889.829 1494.53 889.829 1483.29V508.715C889.829 497.477 894.293 486.699 902.24 478.753C910.186 470.806 920.964 466.342 932.202 466.342H1322.83C1515.26 466.342 1641.56 570.58 1641.56 730.619C1641.56 842.948 1556.6 943.51 1448.36 961.127V966.986C1595.7 983.148 1694.92 1085.2 1694.92 1226.15ZM1282.23 600.663H1058.22V917.069H1246.89C1392.74 917.069 1473.16 858.339 1473.16 753.363C1473.14 654.984 1404 600.663 1282.23 600.663ZM1058.22 1042.61V1391.3H1290.47C1442.32 1391.3 1522.76 1330.37 1522.76 1215.85C1522.76 1101.34 1440.07 1042.59 1280.7 1042.59H1058.22V1042.61Z" fill="white"/>
</svg>
